<svg xmlns="http://www.w3.org/2000/svg" version="1.1" xmlns:xlink="http://www.w3.org/1999/xlink" xmlns:svgjs="http://svgjs.dev/svgjs" width="2000" height="1247" viewBox="0 0 2000 1247"><g transform="matrix(1,0,0,1,-1.2121212121212466,0.504858299595071)"><svg viewBox="0 0 396 247" data-background-color="#ffffff" preserveAspectRatio="xMidYMid meet" height="1247" width="2000" xmlns="http://www.w3.org/2000/svg" xmlns:xlink="http://www.w3.org/1999/xlink"><defs></defs><g id="tight-bounds" transform="matrix(1,0,0,1,0.2400000000000091,-0.09999999999999432)"><svg viewBox="0 0 395.52 247.2" height="247.2" width="395.52"><g><svg></svg></g><g><svg viewBox="0 0 395.52 247.2" height="247.2" width="395.52"><g transform="matrix(1,0,0,1,133.58048914475484,47.215199999999996)"><svg viewBox="0 0 128.35902171049034 152.7696" height="152.7696" width="128.35902171049034"><g><svg viewBox="0 0 128.35902171049034 152.7696" height="152.7696" width="128.35902171049034"><g><svg viewBox="0 0 175.69324552873366 209.10557344901326" height="152.7696" width="128.35902171049034"><g><svg viewBox="0 0 175.69324552873366 209.10557344901326" height="209.10557344901326" width="175.69324552873366"><g><svg viewBox="0 0 175.69324552873366 209.10557344901326" height="209.10557344901326" width="175.69324552873366"><g><svg viewBox="0 0 175.69324552873366 151.825483872" height="151.825483872" width="175.69324552873366"><g transform="matrix(1,0,0,1,0,0)"><svg width="175.69324552873366" viewBox="1.5 -34 39.75 34.349998474121094" height="151.825483872" data-palette-color="#2a160c"><path d="M1.5-1.1L1.5-1.1 1.5-5Q3.5-3.7 5.7-3.7L5.7-3.7Q10.05-3.7 10.05-8.3L10.05-8.3 10.05-33.7 14.1-33.7 14.1-8.65Q14.1 0 6.25 0L6.25 0Q3.45 0 1.5-1.1ZM39.4-32.45L39.4-32.45 39.4-28.2Q36.35-30.2 32.1-30.2L32.1-30.2Q29.05-30.2 27.25-28.78 25.45-27.35 25.45-25.05L25.45-25.05Q25.45-23.85 25.92-22.9 26.4-21.95 27.6-21.13 28.8-20.3 29.65-19.88 30.5-19.45 32.3-18.65L32.3-18.65Q34-17.9 34.9-17.48 35.8-17.05 37.22-16.13 38.65-15.2 39.37-14.33 40.1-13.45 40.67-12.03 41.25-10.6 41.25-8.95L41.25-8.95Q41.25-4.5 38.2-2.08 35.15 0.35 30.35 0.35L30.35 0.35Q25.05 0.35 21.35-1.8L21.35-1.8 21.35-6.15Q25-3.4 30.25-3.4L30.25-3.4Q33.4-3.4 35.2-4.8 37-6.2 37-8.85L37-8.85Q37-9.95 36.57-10.83 36.15-11.7 35.17-12.43 34.2-13.15 33.32-13.63 32.45-14.1 30.95-14.8L30.95-14.8Q30.65-14.95 30.05-15.2L30.05-15.2Q27.9-16.15 26.77-16.75 25.65-17.35 24.12-18.53 22.6-19.7 21.9-21.25 21.2-22.8 21.2-24.85L21.2-24.85Q21.2-29.15 24.27-31.58 27.35-34 32-34L32-34Q36.35-34 39.4-32.45Z" opacity="1" transform="matrix(1,0,0,1,0,0)" fill="#2a160c" class="undefined-text-0" data-fill-palette-color="primary" id="text-0"></path></svg></g></svg></g><g transform="matrix(1,0,0,1,0,187.66783680256628)"><svg viewBox="0 0 175.69324552873366 21.437736646446968" height="21.437736646446968" width="175.69324552873366"><g transform="matrix(1,0,0,1,0,0)"><svg width="175.69324552873366" viewBox="5.800000190734863 -37.099998474121094 383.52001953125 46.79999923706055" height="21.437736646446968" data-palette-color="#99592a"><path d="M51.75-35L54.3-35 54.3-13.6Q54.3-6.75 50.95-3.25 47.6 0.25 41.55 0.25L41.55 0.25Q37.2 0.25 34.25-1.6 31.3-3.45 30.05-7.05L30.05-7.05Q28.8-3.45 25.85-1.6 22.9 0.25 18.55 0.25L18.55 0.25Q12.5 0.25 9.15-3.25 5.8-6.75 5.8-13.6L5.8-13.6 5.8-35 8.35-35 8.35-13.7Q8.35-7.75 10.98-4.93 13.6-2.1 18.55-2.1L18.55-2.1Q23.45-2.1 26.1-4.95 28.75-7.8 28.75-13.7L28.75-13.7 28.75-35 31.35-35 31.35-13.7Q31.35-7.75 33.98-4.93 36.6-2.1 41.55-2.1L41.55-2.1Q46.45-2.1 49.1-4.95 51.75-7.8 51.75-13.7L51.75-13.7 51.75-35ZM76.1-2.05Q78.65-2.05 80.82-2.98 83-3.9 84.45-5.7L84.45-5.7 85.9-4.05Q84.2-1.95 81.65-0.88 79.1 0.2 76.05 0.2L76.05 0.2Q72.15 0.2 69.07-1.5 66-3.2 64.27-6.2 62.55-9.2 62.55-13.05L62.55-13.05Q62.55-16.9 64.17-19.9 65.8-22.9 68.7-24.6 71.6-26.3 75.25-26.3L75.25-26.3Q78.65-26.3 81.37-24.73 84.1-23.15 85.72-20.38 87.35-17.6 87.5-14.15L87.5-14.15 65.45-9.85Q66.4-6.25 69.25-4.15 72.1-2.05 76.1-2.05L76.1-2.05ZM75.25-24.1Q72.3-24.1 69.95-22.73 67.6-21.35 66.3-18.88 65-16.4 65-13.25L65-13.25Q65-12.7 65.1-11.7L65.1-11.7 85-15.6Q84.65-17.95 83.35-19.9 82.05-21.85 79.95-22.98 77.85-24.1 75.25-24.1L75.25-24.1ZM108.35-26.3Q112-26.3 114.95-24.63 117.9-22.95 119.57-19.93 121.25-16.9 121.25-13.05L121.25-13.05Q121.25-9.2 119.57-6.2 117.9-3.2 114.95-1.5 112 0.2 108.35 0.2L108.35 0.2Q104.85 0.2 102.02-1.48 99.2-3.15 97.65-6.15L97.65-6.15 97.65 0 95.25 0 95.25-37.1 97.75-37.1 97.75-20.15Q99.3-23.05 102.1-24.68 104.9-26.3 108.35-26.3L108.35-26.3ZM108.2-2.05Q111.2-2.05 113.6-3.45 116-4.85 117.37-7.35 118.75-9.85 118.75-13.05L118.75-13.05Q118.75-16.25 117.37-18.75 116-21.25 113.6-22.65 111.2-24.05 108.2-24.05L108.2-24.05Q105.2-24.05 102.82-22.65 100.45-21.25 99.07-18.75 97.7-16.25 97.7-13.05L97.7-13.05Q97.7-9.85 99.07-7.35 100.45-4.85 102.82-3.45 105.2-2.05 108.2-2.05L108.2-2.05ZM142.64 0L142.64-35 156.49-35Q161.94-35 166.17-32.75 170.39-30.5 172.74-26.53 175.09-22.55 175.09-17.5L175.09-17.5Q175.09-12.45 172.74-8.47 170.39-4.5 166.17-2.25 161.94 0 156.49 0L156.49 0 142.64 0ZM145.19-2.3L156.29-2.3Q161.14-2.3 164.84-4.23 168.54-6.15 170.54-9.6 172.54-13.05 172.54-17.5L172.54-17.5Q172.54-21.95 170.54-25.4 168.54-28.85 164.84-30.78 161.14-32.7 156.29-32.7L156.29-32.7 145.19-32.7 145.19-2.3ZM193.84-2.05Q196.39-2.05 198.56-2.98 200.74-3.9 202.19-5.7L202.19-5.7 203.64-4.05Q201.94-1.95 199.39-0.88 196.84 0.2 193.79 0.2L193.79 0.2Q189.89 0.2 186.81-1.5 183.74-3.2 182.01-6.2 180.29-9.2 180.29-13.05L180.29-13.05Q180.29-16.9 181.91-19.9 183.54-22.9 186.44-24.6 189.34-26.3 192.99-26.3L192.99-26.3Q196.39-26.3 199.11-24.73 201.84-23.15 203.46-20.38 205.09-17.6 205.24-14.15L205.24-14.15 183.19-9.85Q184.14-6.25 186.99-4.15 189.84-2.05 193.84-2.05L193.84-2.05ZM192.99-24.1Q190.04-24.1 187.69-22.73 185.34-21.35 184.04-18.88 182.74-16.4 182.74-13.25L182.74-13.25Q182.74-12.7 182.84-11.7L182.84-11.7 202.74-15.6Q202.39-17.95 201.09-19.9 199.79-21.85 197.69-22.98 195.59-24.1 192.99-24.1L192.99-24.1ZM230.89-26.1L233.44-26.1 221.64 0 219.09 0 207.34-26.1 209.99-26.1 220.39-2.75 230.89-26.1ZM248.83-2.05Q251.38-2.05 253.56-2.98 255.73-3.9 257.18-5.7L257.18-5.7 258.63-4.05Q256.93-1.95 254.38-0.88 251.83 0.2 248.78 0.2L248.78 0.2Q244.88 0.2 241.81-1.5 238.73-3.2 237.01-6.2 235.28-9.2 235.28-13.05L235.28-13.05Q235.28-16.9 236.91-19.9 238.53-22.9 241.43-24.6 244.33-26.3 247.98-26.3L247.98-26.3Q251.38-26.3 254.11-24.73 256.83-23.15 258.46-20.38 260.08-17.6 260.23-14.15L260.23-14.15 238.18-9.85Q239.13-6.25 241.98-4.15 244.83-2.05 248.83-2.05L248.83-2.05ZM247.98-24.1Q245.03-24.1 242.68-22.73 240.33-21.35 239.03-18.88 237.73-16.4 237.73-13.25L237.73-13.25Q237.73-12.7 237.83-11.7L237.83-11.7 257.73-15.6Q257.38-17.95 256.08-19.9 254.78-21.85 252.68-22.98 250.58-24.1 247.98-24.1L247.98-24.1ZM274.78 0.2Q271.48 0.2 269.73-1.68 267.98-3.55 267.98-6.85L267.98-6.85 267.98-37.1 270.48-37.1 270.48-7.15Q270.48-4.6 271.63-3.28 272.78-1.95 275.08-1.95L275.08-1.95Q276.38-1.95 277.58-2.45L277.58-2.45 277.78-0.35Q276.38 0.2 274.78 0.2L274.78 0.2ZM292.58 0.2Q288.88 0.2 285.9-1.5 282.93-3.2 281.23-6.23 279.53-9.25 279.53-13.05L279.53-13.05Q279.53-16.85 281.23-19.88 282.93-22.9 285.9-24.6 288.88-26.3 292.58-26.3L292.58-26.3Q296.28-26.3 299.25-24.6 302.23-22.9 303.93-19.88 305.63-16.85 305.63-13.05L305.63-13.05Q305.63-9.25 303.93-6.23 302.23-3.2 299.25-1.5 296.28 0.2 292.58 0.2L292.58 0.2ZM292.58-2.05Q295.58-2.05 297.95-3.45 300.33-4.85 301.7-7.35 303.08-9.85 303.08-13.05L303.08-13.05Q303.08-16.25 301.7-18.75 300.33-21.25 297.95-22.65 295.58-24.05 292.58-24.05L292.58-24.05Q289.58-24.05 287.2-22.65 284.83-21.25 283.45-18.75 282.08-16.25 282.08-13.05L282.08-13.05Q282.08-9.85 283.45-7.35 284.83-4.85 287.2-3.45 289.58-2.05 292.58-2.05L292.58-2.05ZM326.48-26.3Q330.13-26.3 333.08-24.6 336.03-22.9 337.7-19.9 339.38-16.9 339.38-13.05L339.38-13.05Q339.38-9.2 337.7-6.18 336.03-3.15 333.08-1.48 330.13 0.2 326.48 0.2L326.48 0.2Q323.03 0.2 320.23-1.43 317.43-3.05 315.88-5.95L315.88-5.95 315.88 9.7 313.38 9.7 313.38-26.1 315.78-26.1 315.78-19.95Q317.33-22.95 320.15-24.63 322.98-26.3 326.48-26.3L326.48-26.3ZM326.33-2.05Q329.33-2.05 331.73-3.45 334.13-4.85 335.5-7.35 336.88-9.85 336.88-13.05L336.88-13.05Q336.88-16.25 335.5-18.75 334.13-21.25 331.73-22.65 329.33-24.05 326.33-24.05L326.33-24.05Q323.33-24.05 320.95-22.65 318.58-21.25 317.2-18.75 315.83-16.25 315.83-13.05L315.83-13.05Q315.83-9.85 317.2-7.35 318.58-4.85 320.95-3.45 323.33-2.05 326.33-2.05L326.33-2.05ZM357.82-2.05Q360.37-2.05 362.55-2.98 364.72-3.9 366.17-5.7L366.17-5.7 367.62-4.05Q365.92-1.95 363.37-0.88 360.82 0.2 357.77 0.2L357.77 0.2Q353.87 0.2 350.8-1.5 347.72-3.2 346-6.2 344.27-9.2 344.27-13.05L344.27-13.05Q344.27-16.9 345.9-19.9 347.52-22.9 350.42-24.6 353.32-26.3 356.97-26.3L356.97-26.3Q360.37-26.3 363.1-24.73 365.82-23.15 367.45-20.38 369.07-17.6 369.22-14.15L369.22-14.15 347.17-9.85Q348.12-6.25 350.97-4.15 353.82-2.05 357.82-2.05L357.82-2.05ZM356.97-24.1Q354.02-24.1 351.67-22.73 349.32-21.35 348.02-18.88 346.72-16.4 346.72-13.25L346.72-13.25Q346.72-12.7 346.82-11.7L346.82-11.7 366.72-15.6Q366.37-17.95 365.07-19.9 363.77-21.85 361.67-22.98 359.57-24.1 356.97-24.1L356.97-24.1ZM379.37-20.4Q380.57-23.25 383.12-24.78 385.67-26.3 389.32-26.3L389.32-26.3 389.32-23.85 388.72-23.9Q384.37-23.9 381.92-21.18 379.47-18.45 379.47-13.6L379.47-13.6 379.47 0 376.97 0 376.97-26.1 379.37-26.1 379.37-20.4Z" opacity="1" transform="matrix(1,0,0,1,0,0)" fill="#99592a" class="undefined-text-1" data-fill-palette-color="secondary" id="text-1"></path></svg></g></svg></g></svg></g></svg></g></svg></g></svg></g></svg></g><path d="M83.412 41.215L83.412 0 330.612 0 330.612 247.2 83.412 247.2 83.412 205.985 93.415 205.985 93.415 237.197 320.609 237.197 320.609 10.003 93.415 10.003 93.415 41.215Z" fill="#2a160c" stroke="transparent" data-fill-palette-color="primary"></path></svg></g></svg><rect width="395.52" height="247.2" fill="none" stroke="none" visibility="hidden"></rect></g></svg></g></svg>